<svg width="333" height="127" viewBox="0 0 333 127" fill="none" xmlns="http://www.w3.org/2000/svg">
<path d="M9.83477e-07 2.63599C5.27197 3.57322 9.6067 4.21758 13.0042 4.56904C16.4017 4.9205 19.1548 5.21339 21.2636 5.4477C23.7239 5.68201 25.6569 5.74059 27.0628 5.62343H32.3347C34.2092 5.62343 36.5523 5.62343 39.364 5.62343C42.2929 5.50628 45.9247 5.4477 50.2594 5.4477C52.7197 11.1883 54.9456 16.4603 56.9372 21.2636C59.046 26.0669 60.8034 30.1674 62.2092 33.5649C63.8494 37.6653 65.3724 41.3557 66.7782 44.636C68.4184 48.7364 70.1757 53.2469 72.0502 58.1674C73.9247 63.0879 75.6234 67.7155 77.1464 72.0502C78.7866 76.3849 80.1339 79.9582 81.1883 82.7699C82.2427 85.5816 82.7699 86.8703 82.7699 86.636C82.7699 86.5188 82.8285 85.3473 82.9456 83.1213C83.0628 80.7782 83.1799 77.908 83.2971 74.5105C83.4142 70.9958 83.5314 67.1883 83.6485 63.0879C83.8828 58.8703 84 54.8285 84 50.9623C84.1172 46.9791 84.1757 43.3473 84.1757 40.0669C84.1757 36.7866 84.0586 34.3264 83.8243 32.6862C83.4728 30.6946 82.7699 28.41 81.7155 25.8326C80.7782 23.6067 79.4895 20.9707 77.8494 17.9247C76.2092 14.7615 73.9247 11.1883 70.9958 7.20502C75.7992 7.32218 79.7239 7.38076 82.7699 7.38076C85.8159 7.38076 88.2762 7.38076 90.1506 7.38076C92.2594 7.38076 93.8996 7.32218 95.0711 7.20502C96.5941 7.20502 98.4686 7.08787 100.695 6.85356C102.686 6.61925 105.146 6.44352 108.075 6.32636C111.121 6.09205 114.87 5.79917 119.322 5.4477C116.745 7.7908 114.695 10.0167 113.172 12.1255C111.649 14.2343 110.418 16.1088 109.481 17.749C108.427 19.6234 107.724 21.3808 107.372 23.0209C106.904 25.1297 106.494 28.5858 106.142 33.3891C105.908 38.0753 105.615 43.3473 105.264 49.205C105.029 55.0628 104.795 61.1548 104.561 67.4812C104.326 73.8075 104.092 79.6067 103.858 84.8787C103.858 88.8619 103.741 93.1381 103.506 97.7071C103.272 101.573 103.038 105.967 102.803 110.887C102.569 115.69 102.276 120.552 101.925 125.473L86.2845 125.824C81.7155 117.741 77.8494 110.828 74.6862 105.088C71.6402 99.2301 69.1213 94.4268 67.1297 90.6778C64.9038 86.3431 63.0293 82.7113 61.5063 79.7824C60.2176 76.9707 58.5188 73.749 56.41 70.1172C54.6527 67.0711 52.4268 63.3222 49.7322 58.8703C47.1548 54.4184 44.0502 49.3222 40.4184 43.5816C40.0669 51.6653 39.8912 58.5774 39.8912 64.318C40.0084 69.9414 40.1841 74.6276 40.4184 78.3766C40.7699 82.7113 41.1799 86.3431 41.6485 89.272C42.2343 92.0837 43.0544 95.2469 44.1088 98.7615C45.046 101.808 46.159 105.381 47.4477 109.481C48.8536 113.582 50.5523 118.209 52.5439 123.364C45.6318 123.013 40.477 122.837 37.0795 122.837H31.8075C30.1674 122.837 27.9414 123.013 25.1297 123.364C22.7866 123.598 19.5649 123.95 15.4644 124.418C11.4812 124.887 6.50209 125.531 0.527198 126.351C3.33891 122.954 5.56485 119.849 7.20502 117.038C8.96234 114.109 10.3096 111.649 11.2469 109.657C12.4184 107.314 13.2385 105.264 13.7071 103.506C14.0586 101.632 14.2929 98.41 14.41 93.841C14.5272 89.1548 14.5272 83.8829 14.41 78.0251C14.41 72.0502 14.2929 65.7824 14.0586 59.2218C13.9414 52.6611 13.7657 46.569 13.5314 40.9456C13.2971 35.3222 13.0042 30.5188 12.6527 26.5356C12.4184 22.5523 12.2427 20.0921 12.1255 19.1548C11.7741 17.6318 11.0711 15.9916 10.0167 14.2343C9.0795 12.7113 7.84937 11.0126 6.32636 9.13808C4.80335 7.14645 2.69456 4.97908 9.83477e-07 2.63599ZM147.264 2.02656e-06C151.13 0.234312 154.293 0.410044 156.753 0.527199C159.331 0.644354 161.381 0.702931 162.904 0.702931C164.661 0.820086 166.008 0.820086 166.946 0.702931H171.515C173.272 0.702931 175.732 0.761508 178.895 0.878663C182.176 0.878663 186.452 0.937241 191.724 1.0544C191.138 1.87448 190.669 2.8703 190.318 4.04184C189.967 5.21339 189.674 6.38494 189.439 7.55649C189.088 8.84519 188.854 10.251 188.736 11.7741C188.619 13.6485 188.385 16.5774 188.033 20.5607C187.799 23.9582 187.448 28.7029 186.979 34.795C186.628 40.7699 186.159 48.5607 185.573 58.1674C188.971 58.1674 191.9 57.8745 194.36 57.2887C196.82 56.5858 198.87 55.7657 200.51 54.8285C202.385 53.8912 203.908 52.7782 205.08 51.4895C205.665 50.7866 206.31 50.0251 207.013 49.205C207.598 48.5021 208.36 47.7406 209.297 46.9205C210.234 46.1004 211.23 45.2218 212.285 44.2845C212.05 47.4477 211.874 50.2008 211.757 52.5439C211.64 54.7699 211.523 56.6444 211.406 58.1674C211.289 59.9247 211.172 61.3305 211.054 62.3849C211.054 63.6736 210.937 65.3724 210.703 67.4812C210.469 69.3557 210.234 71.8745 210 75.0377C209.766 78.0837 209.531 81.9498 209.297 86.636C208.126 84.2929 207.013 82.477 205.958 81.1883C205.021 79.7824 204.201 78.728 203.498 78.0251C202.561 77.205 201.741 76.6193 201.038 76.2678C200.218 76.0335 199.105 75.7992 197.699 75.5649C196.41 75.3305 194.77 75.2134 192.778 75.2134C190.904 75.0962 188.444 74.9791 185.397 74.8619C185.397 81.7741 185.515 87.3389 185.749 91.5565C186.1 95.7741 186.452 99.0544 186.803 101.397C187.272 104.209 187.799 106.201 188.385 107.372C189.088 108.427 190.084 109.657 191.372 111.063C192.544 112.351 194.126 113.874 196.117 115.632C198.109 117.389 200.686 119.381 203.849 121.607C201.155 122.192 198.577 122.603 196.117 122.837C193.774 122.954 191.607 123.13 189.615 123.364C187.389 123.598 185.28 123.715 183.289 123.715C181.18 123.715 178.603 123.833 175.556 124.067C172.862 124.301 169.523 124.536 165.54 124.77C161.556 125.004 156.753 125.297 151.13 125.649C153.121 123.657 154.703 121.841 155.874 120.201C157.163 118.444 158.159 116.921 158.862 115.632C159.682 114.226 160.268 112.996 160.619 111.941C160.854 110.653 161.205 108.485 161.674 105.439C162.025 102.862 162.435 99.2887 162.904 94.7197C163.372 90.1506 163.9 84.1172 164.485 76.6193L116.686 77.1464L117.565 65.3724C123.305 57.1716 127.874 50.3766 131.272 44.9875C134.787 39.4812 137.481 35.0293 139.356 31.6318C141.464 27.7657 142.987 24.7197 143.925 22.4937C144.51 20.3849 145.038 18.159 145.506 15.8159C145.975 13.8243 146.385 11.4812 146.736 8.78661C147.088 5.9749 147.264 3.04603 147.264 2.02656e-06ZM166.594 59.9247C166.828 56.7615 167.004 53.8912 167.121 51.3138C167.356 48.6193 167.531 46.2762 167.649 44.2845C167.766 42.0586 167.824 39.9498 167.824 37.9582V31.4561C167.824 29.3473 167.824 26.887 167.824 24.0753C167.941 21.1464 168.059 17.8661 168.176 14.2343L142.343 60.2762L166.594 59.9247ZM282.929 0.351466C290.427 0.234312 296.577 1.58159 301.381 4.39331C306.301 7.20502 310.285 10.5439 313.331 14.41C316.377 18.2762 318.72 22.2008 320.36 26.1841C322 30.0502 323.289 33.0962 324.226 35.3222C324.46 35.908 324.929 36.6695 325.632 37.6067C326.218 38.4268 327.038 39.4226 328.092 40.5941C329.264 41.6485 330.728 42.8787 332.485 44.2845C328.854 44.4017 325.632 44.5188 322.82 44.636C320.008 44.636 317.607 44.6946 315.615 44.8117C313.389 44.9289 311.398 45.046 309.64 45.1632C307.883 45.2803 305.716 45.4561 303.138 45.6904C300.795 45.9247 297.925 46.159 294.527 46.3933C291.13 46.6276 286.971 46.9791 282.05 47.4477C284.979 43.9331 287.264 40.8285 288.904 38.1339C290.661 35.3222 291.95 32.8619 292.77 30.7531C293.707 28.5272 294.234 26.5941 294.351 24.954C294.586 23.3138 294.527 21.908 294.176 20.7364C293.473 18.0418 291.657 16.1088 288.728 14.9372C280.293 12.5941 272.912 14.4686 266.586 20.5607C260.377 26.5356 255.925 36.3766 253.23 50.0837C251.941 56.8787 250.711 63.9665 249.54 71.3473C248.485 78.6109 248.075 85.2887 248.31 91.3808C248.544 97.3557 249.715 102.218 251.824 105.967C253.933 109.715 257.565 111.473 262.72 111.239C267.757 111.004 272.033 110.184 275.548 108.778C279.063 107.255 281.874 105.498 283.983 103.506C286.092 101.397 287.557 99.1716 288.377 96.8285C289.314 94.3682 289.665 92.0837 289.431 89.9749C288.962 88.3347 287.732 86.5774 285.741 84.7029C283.983 83.0628 281.347 81.2469 277.833 79.2552C274.318 77.1464 269.28 74.9791 262.72 72.7531C268.929 72.4017 274.025 72.1674 278.008 72.0502C282.109 71.8159 285.331 71.5816 287.674 71.3473C290.485 71.113 292.653 70.9372 294.176 70.8201C295.582 70.7029 297.632 70.5858 300.326 70.4686C302.669 70.3515 305.657 70.2929 309.289 70.2929C313.038 70.2929 317.724 70.2343 323.347 70.1172C321.239 72.2259 319.598 74.159 318.427 75.9163C317.841 76.8536 317.314 77.6736 316.845 78.3766C316.377 79.5481 316.201 81.9498 316.318 85.5816C316.318 88.6276 316.552 93.1381 317.021 99.113C317.49 104.971 318.368 112.996 319.657 123.188L296.285 126.351L297.339 102.628C294.644 109.071 291.247 113.874 287.146 117.038C283.163 120.201 279.356 122.427 275.724 123.715C271.389 125.239 266.879 125.941 262.192 125.824C256.1 125.239 250.008 123.833 243.916 121.607C237.824 119.381 232.435 115.983 227.749 111.414C223.063 106.728 219.431 100.695 216.854 93.3138C214.393 85.9331 213.632 76.795 214.569 65.8996C215.623 55.0042 218.201 45.5146 222.301 37.431C226.519 29.2301 231.732 22.4351 237.941 17.046C244.151 11.6569 251.121 7.61507 258.854 4.9205C266.703 2.10879 274.728 0.585776 282.929 0.351466Z" fill="#E9762B"/>
</svg>
