<svg width="196" height="35" viewBox="0 0 196 35" fill="none" xmlns="http://www.w3.org/2000/svg">
<path d="M0 1.5C1.40625 1.75 2.5625 1.92188 3.46875 2.01562C4.375 2.10938 5.10938 2.1875 5.67188 2.25C6.32812 2.3125 6.84375 2.32812 7.21875 2.29688H8.625C9.125 2.29688 9.75 2.29688 10.5 2.29688C11.2812 2.26563 12.25 2.25 13.4062 2.25C14.0625 3.78125 14.6562 5.1875 15.1875 6.46875C15.75 7.75 16.2188 8.84375 16.5938 9.75C17.0312 10.8438 17.4375 11.8281 17.8125 12.7031C18.25 13.7969 18.7188 15 19.2188 16.3125C19.7188 17.625 20.1719 18.8594 20.5781 20.0156C21.0156 21.1719 21.375 22.125 21.6562 22.875C21.9375 23.625 22.0781 23.9688 22.0781 23.9062C22.0781 23.875 22.0938 23.5625 22.125 22.9688C22.1562 22.3438 22.1875 21.5781 22.2188 20.6719C22.25 19.7344 22.2812 18.7188 22.3125 17.625C22.375 16.5 22.4062 15.4219 22.4062 14.3906C22.4375 13.3281 22.4531 12.3594 22.4531 11.4844C22.4531 10.6094 22.4219 9.95312 22.3594 9.51562C22.2656 8.98438 22.0781 8.375 21.7969 7.6875C21.5469 7.09375 21.2031 6.39062 20.7656 5.57812C20.3281 4.73438 19.7188 3.78125 18.9375 2.71875C20.2188 2.75 21.2656 2.76562 22.0781 2.76562C22.8906 2.76562 23.5469 2.76562 24.0469 2.76562C24.6094 2.76562 25.0469 2.75 25.3594 2.71875C25.7656 2.71875 26.2656 2.6875 26.8594 2.625C27.3906 2.5625 28.0469 2.51562 28.8281 2.48438C29.6406 2.42187 30.6406 2.34375 31.8281 2.25C31.1406 2.875 30.5938 3.46875 30.1875 4.03125C29.7812 4.59375 29.4531 5.09375 29.2031 5.53125C28.9219 6.03125 28.7344 6.5 28.6406 6.9375C28.5156 7.5 28.4062 8.42188 28.3125 9.70312C28.25 10.9531 28.1719 12.3594 28.0781 13.9219C28.0156 15.4844 27.9531 17.1094 27.8906 18.7969C27.8281 20.4844 27.7656 22.0312 27.7031 23.4375C27.7031 24.5 27.6719 25.6406 27.6094 26.8594C27.5469 27.8906 27.4844 29.0625 27.4219 30.375C27.3594 31.6562 27.2812 32.9531 27.1875 34.2656L23.0156 34.3594C21.7969 32.2031 20.7656 30.3594 19.9219 28.8281C19.1094 27.2656 18.4375 25.9844 17.9062 24.9844C17.3125 23.8281 16.8125 22.8594 16.4062 22.0781C16.0625 21.3281 15.6094 20.4688 15.0469 19.5C14.5781 18.6875 13.9844 17.6875 13.2656 16.5C12.5781 15.3125 11.75 13.9531 10.7812 12.4219C10.6875 14.5781 10.6406 16.4219 10.6406 17.9531C10.6719 19.4531 10.7188 20.7031 10.7812 21.7031C10.875 22.8594 10.9844 23.8281 11.1094 24.6094C11.2656 25.3594 11.4844 26.2031 11.7656 27.1406C12.0156 27.9531 12.3125 28.9062 12.6562 30C13.0312 31.0938 13.4844 32.3281 14.0156 33.7031C12.1719 33.6094 10.7969 33.5625 9.89062 33.5625H8.48438C8.04688 33.5625 7.45312 33.6094 6.70312 33.7031C6.07812 33.7656 5.21875 33.8594 4.125 33.9844C3.0625 34.1094 1.73438 34.2812 0.140625 34.5C0.890625 33.5938 1.48438 32.7656 1.92188 32.0156C2.39062 31.2344 2.75 30.5781 3 30.0469C3.3125 29.4219 3.53125 28.875 3.65625 28.4062C3.75 27.9062 3.8125 27.0469 3.84375 25.8281C3.875 24.5781 3.875 23.1719 3.84375 21.6094C3.84375 20.0156 3.8125 18.3438 3.75 16.5938C3.71875 14.8438 3.67188 13.2188 3.60938 11.7188C3.54688 10.2188 3.46875 8.9375 3.375 7.875C3.3125 6.8125 3.26562 6.15625 3.23438 5.90625C3.14062 5.5 2.95312 5.0625 2.67188 4.59375C2.42188 4.1875 2.09375 3.73437 1.6875 3.23438C1.28125 2.70312 0.71875 2.125 0 1.5ZM26.5781 1.07812C28.6719 1.17188 30.2969 1.21875 31.4531 1.21875H33.1875C33.6875 1.21875 34.3125 1.20312 35.0625 1.17188C35.6875 1.14063 36.4844 1.125 37.4531 1.125C38.4219 1.09375 39.5781 1.04688 40.9219 0.984375C40.2969 1.42188 39.7969 1.84375 39.4219 2.25C39.0469 2.65625 38.75 3.01563 38.5312 3.32812C38.2812 3.70312 38.1094 4.04688 38.0156 4.35938C37.7969 5.17188 37.7031 6.28125 37.7344 7.6875C37.7969 9.0625 37.9375 10.5625 38.1562 12.1875C38.375 13.7812 38.6406 15.4062 38.9531 17.0625C39.2656 18.7188 39.5781 20.2188 39.8906 21.5625C40.2344 22.9062 40.5312 24.0156 40.7812 24.8906C41.0625 25.7344 41.2656 26.1562 41.3906 26.1562C41.5156 26.1562 41.75 25.7031 42.0938 24.7969C42.4688 23.8906 42.8906 22.75 43.3594 21.375C43.8281 19.9688 44.3125 18.4531 44.8125 16.8281C45.3125 15.1719 45.7656 13.6094 46.1719 12.1406C46.6094 10.6406 46.9688 9.35938 47.25 8.29688C47.5312 7.20312 47.6719 6.53125 47.6719 6.28125C47.6406 5.9375 47.5312 5.57812 47.3438 5.20312C47.1875 4.85938 46.9062 4.46875 46.5 4.03125C46.125 3.5625 45.5938 3.03125 44.9062 2.4375C45.875 2.40625 46.7031 2.375 47.3906 2.34375C48.1094 2.3125 48.7188 2.29688 49.2188 2.29688H50.6719H58.1719C57.3906 2.82813 56.7188 3.34375 56.1562 3.84375C55.625 4.34375 55.1875 4.8125 54.8438 5.25C54.4375 5.75 54.0938 6.21875 53.8125 6.65625C53.5 7.3125 52.9844 8.73438 52.2656 10.9219C51.9531 11.8594 51.5938 13 51.1875 14.3438C50.7812 15.6875 50.2969 17.2969 49.7344 19.1719C49.1719 21.0469 48.5469 23.2188 47.8594 25.6875C47.1719 28.125 46.3906 30.9062 45.5156 34.0312L39 34.875C38.2188 32.4375 37.5312 30.2188 36.9375 28.2188C36.375 26.1875 35.875 24.4531 35.4375 23.0156C34.9375 21.3281 34.5156 19.8125 34.1719 18.4688C33.7031 16.8438 33.2969 15.2031 32.9531 13.5469C32.6406 11.8594 32.3594 10.3438 32.1094 9C31.8906 7.625 31.6875 6.48438 31.5 5.57812C31.3125 4.67187 31.1094 4.14063 30.8906 3.98438C30.7031 3.82812 30.4219 3.625 30.0469 3.375C29.7031 3.15625 29.2656 2.875 28.7344 2.53125C28.1719 2.15625 27.4531 1.67187 26.5781 1.07812ZM60.75 3C62.3125 3.09375 63.625 3.17187 64.6875 3.23438C65.7812 3.26562 66.6875 3.29688 67.4062 3.32812C68.2188 3.35937 68.9062 3.35937 69.4688 3.32812C70.0312 3.29688 70.7969 3.21875 71.7656 3.09375C72.5781 3 73.6562 2.85938 75 2.67188C76.375 2.45313 78.0781 2.17188 80.1094 1.82812C79.3906 2.54688 78.8281 3.20313 78.4219 3.79688C78.0469 4.35938 77.75 4.84375 77.5312 5.25C77.2812 5.75 77.1094 6.17188 77.0156 6.51562C76.9531 6.82812 77.0156 7.60938 77.2031 8.85938C77.3906 10.1094 77.6562 11.5938 78 13.3125C78.3438 15 78.7188 16.8125 79.125 18.75C79.5312 20.6562 79.9375 22.4531 80.3438 24.1406C80.75 25.7969 81.1094 27.2188 81.4219 28.4062C81.7656 29.5625 82.0156 30.25 82.1719 30.4688C82.6406 31.125 82.9375 31.5625 83.0625 31.7812C83.1875 31.9688 83.4062 32.1406 83.7188 32.2969C83.8438 32.3594 84.0469 32.4531 84.3281 32.5781C84.5781 32.7031 84.9062 32.8594 85.3125 33.0469C85.75 33.2344 86.2969 33.4531 86.9531 33.7031C85.7344 33.7656 84.6875 33.8125 83.8125 33.8438C82.9375 33.8438 82.2188 33.8594 81.6562 33.8906C81 33.9219 80.4375 33.9531 79.9688 33.9844C79.5 33.9844 78.9375 34.0156 78.2812 34.0781C77.7188 34.1406 76.9844 34.2031 76.0781 34.2656C75.2031 34.3281 74.1719 34.3906 72.9844 34.4531C73.6094 34.0156 74.1094 33.625 74.4844 33.2812C74.8906 32.9062 75.2031 32.5938 75.4219 32.3438C75.6719 32.0312 75.8438 31.75 75.9375 31.5C76 31.2188 76.0469 30.7969 76.0781 30.2344C76.1094 29.7344 76.1094 29.0781 76.0781 28.2656C76.0469 27.4219 75.9688 26.3281 75.8438 24.9844L63.5156 26.25C63.2031 26.7812 62.9688 27.25 62.8125 27.6562C62.6562 28.0312 62.5469 28.3594 62.4844 28.6406C62.3906 28.9844 62.3594 29.2656 62.3906 29.4844C62.4531 29.7344 62.5625 30.0312 62.7188 30.375C62.875 30.6875 63.0938 31.0625 63.375 31.5C63.6875 31.9062 64.1406 32.3906 64.7344 32.9531C63.9531 32.9219 63.1562 32.9062 62.3438 32.9062C61.5312 32.9062 60.7812 32.9219 60.0938 32.9531C59.2812 32.9844 58.4844 33.0156 57.7031 33.0469C56.9219 33.0781 56.0312 33.125 55.0312 33.1875C54.1875 33.25 53.2031 33.3281 52.0781 33.4219C50.9219 33.4844 49.6875 33.5781 48.375 33.7031C49.1875 33.3281 49.875 32.9531 50.4375 32.5781C51 32.1719 51.4688 31.7969 51.8438 31.4531C52.2812 31.0781 52.6562 30.7188 52.9688 30.375C53.1875 30.0625 53.625 29.3438 54.2812 28.2188C54.9375 27.0625 55.6719 25.7031 56.4844 24.1406C57.3281 22.5781 58.2031 20.9062 59.1094 19.125C60.0469 17.3438 60.8906 15.6719 61.6406 14.1094C62.3906 12.5156 63 11.1406 63.4688 9.98438C63.9375 8.82812 64.1719 8.07812 64.1719 7.73438C64.1094 7.32812 63.9531 6.875 63.7031 6.375C63.4844 5.9375 63.1406 5.4375 62.6719 4.875C62.2344 4.3125 61.5938 3.6875 60.75 3ZM75.2812 21.5156C75.0938 20.4219 74.9219 19.4844 74.7656 18.7031C74.6094 17.8906 74.4844 17.2188 74.3906 16.6875C74.2656 16.0625 74.1719 15.5156 74.1094 15.0469C74.0156 14.6094 73.9062 14.0469 73.7812 13.3594C73.6562 12.7656 73.5 12.0312 73.3125 11.1562C73.1562 10.25 72.9531 9.17188 72.7031 7.92188C70.9219 11.4844 69.5312 14.25 68.5312 16.2188C67.5625 18.1562 66.8594 19.5781 66.4219 20.4844C65.8906 21.5469 65.5938 22.1719 65.5312 22.3594L75.2812 21.5156ZM92.6719 0.796875C93.7031 0.859375 94.5469 0.90625 95.2031 0.9375C95.8906 0.96875 96.4375 0.984375 96.8438 0.984375C97.3125 1.01562 97.6719 1.01562 97.9219 0.984375H99.1406C99.6094 0.984375 100.266 1 101.109 1.03125C101.984 1.03125 103.125 1.04688 104.531 1.07812C104.375 1.29687 104.25 1.5625 104.156 1.875C104.062 2.1875 103.984 2.5 103.922 2.8125C103.828 3.15625 103.766 3.53125 103.734 3.9375C103.703 4.4375 103.641 5.21875 103.547 6.28125C103.484 7.1875 103.391 8.45312 103.266 10.0781C103.172 11.6719 103.047 13.75 102.891 16.3125C103.797 16.3125 104.578 16.2344 105.234 16.0781C105.891 15.8906 106.438 15.6719 106.875 15.4219C107.375 15.1719 107.781 14.875 108.094 14.5312C108.25 14.3438 108.422 14.1406 108.609 13.9219C108.766 13.7344 108.969 13.5312 109.219 13.3125C109.469 13.0938 109.734 12.8594 110.016 12.6094C109.953 13.4531 109.906 14.1875 109.875 14.8125C109.844 15.4062 109.812 15.9062 109.781 16.3125C109.75 16.7812 109.719 17.1562 109.688 17.4375C109.688 17.7812 109.656 18.2344 109.594 18.7969C109.531 19.2969 109.469 19.9688 109.406 20.8125C109.344 21.625 109.281 22.6562 109.219 23.9062C108.906 23.2812 108.609 22.7969 108.328 22.4531C108.078 22.0781 107.859 21.7969 107.672 21.6094C107.422 21.3906 107.203 21.2344 107.016 21.1406C106.797 21.0781 106.5 21.0156 106.125 20.9531C105.781 20.8906 105.344 20.8594 104.812 20.8594C104.312 20.8281 103.656 20.7969 102.844 20.7656C102.844 22.6094 102.875 24.0938 102.938 25.2188C103.031 26.3438 103.125 27.2188 103.219 27.8438C103.344 28.5938 103.484 29.125 103.641 29.4375C103.828 29.7188 104.094 30.0469 104.438 30.4219C104.75 30.7656 105.172 31.1719 105.703 31.6406C106.234 32.1094 106.922 32.6406 107.766 33.2344C107.047 33.3906 106.359 33.5 105.703 33.5625C105.078 33.5938 104.5 33.6406 103.969 33.7031C103.375 33.7656 102.812 33.7969 102.281 33.7969C101.719 33.7969 101.031 33.8281 100.219 33.8906C99.5 33.9531 98.6094 34.0156 97.5469 34.0781C96.4844 34.1406 95.2031 34.2188 93.7031 34.3125C94.2344 33.7812 94.6562 33.2969 94.9688 32.8594C95.3125 32.3906 95.5781 31.9844 95.7656 31.6406C95.9844 31.2656 96.1406 30.9375 96.2344 30.6562C96.2969 30.3125 96.3906 29.7344 96.5156 28.9219C96.6094 28.2344 96.7188 27.2812 96.8438 26.0625C96.9688 24.8438 97.1094 23.2344 97.2656 21.2344L84.5156 21.375L84.75 18.2344C86.2812 16.0469 87.5 14.2344 88.4062 12.7969C89.3438 11.3281 90.0625 10.1406 90.5625 9.23438C91.125 8.20312 91.5312 7.39062 91.7812 6.79688C91.9375 6.23438 92.0781 5.64062 92.2031 5.01562C92.3281 4.48437 92.4375 3.85938 92.5312 3.14062C92.625 2.39062 92.6719 1.60938 92.6719 0.796875ZM97.8281 16.7812C97.8906 15.9375 97.9375 15.1719 97.9688 14.4844C98.0312 13.7656 98.0781 13.1406 98.1094 12.6094C98.1406 12.0156 98.1562 11.4531 98.1562 10.9219V9.1875C98.1562 8.625 98.1562 7.96875 98.1562 7.21875C98.1875 6.4375 98.2188 5.5625 98.25 4.59375L91.3594 16.875L97.8281 16.7812ZM128.859 0.890625C130.859 0.859375 132.5 1.21875 133.781 1.96875C135.094 2.71875 136.156 3.60938 136.969 4.64062C137.781 5.67188 138.406 6.71875 138.844 7.78125C139.281 8.8125 139.625 9.625 139.875 10.2188C139.938 10.375 140.062 10.5781 140.25 10.8281C140.406 11.0469 140.625 11.3125 140.906 11.625C141.219 11.9062 141.609 12.2344 142.078 12.6094C141.109 12.6406 140.25 12.6719 139.5 12.7031C138.75 12.7031 138.109 12.7188 137.578 12.75C136.984 12.7812 136.453 12.8125 135.984 12.8438C135.516 12.875 134.938 12.9219 134.25 12.9844C133.625 13.0469 132.859 13.1094 131.953 13.1719C131.047 13.2344 129.938 13.3281 128.625 13.4531C129.406 12.5156 130.016 11.6875 130.453 10.9688C130.922 10.2188 131.266 9.5625 131.484 9C131.734 8.40625 131.875 7.89062 131.906 7.45312C131.969 7.01562 131.953 6.64062 131.859 6.32812C131.672 5.60938 131.188 5.09375 130.406 4.78125C128.156 4.15625 126.188 4.65625 124.5 6.28125C122.844 7.875 121.656 10.5 120.938 14.1562C120.594 15.9688 120.266 17.8594 119.953 19.8281C119.672 21.7656 119.562 23.5469 119.625 25.1719C119.688 26.7656 120 28.0625 120.562 29.0625C121.125 30.0625 122.094 30.5312 123.469 30.4688C124.812 30.4062 125.953 30.1875 126.891 29.8125C127.828 29.4062 128.578 28.9375 129.141 28.4062C129.703 27.8438 130.094 27.25 130.312 26.625C130.562 25.9688 130.656 25.3594 130.594 24.7969C130.469 24.3594 130.141 23.8906 129.609 23.3906C129.141 22.9531 128.438 22.4688 127.5 21.9375C126.562 21.375 125.219 20.7969 123.469 20.2031C125.125 20.1094 126.484 20.0469 127.547 20.0156C128.641 19.9531 129.5 19.8906 130.125 19.8281C130.875 19.7656 131.453 19.7188 131.859 19.6875C132.234 19.6562 132.781 19.625 133.5 19.5938C134.125 19.5625 134.922 19.5469 135.891 19.5469C136.891 19.5469 138.141 19.5312 139.641 19.5C139.078 20.0625 138.641 20.5781 138.328 21.0469C138.172 21.2969 138.031 21.5156 137.906 21.7031C137.781 22.0156 137.734 22.6562 137.766 23.625C137.766 24.4375 137.828 25.6406 137.953 27.2344C138.078 28.7969 138.312 30.9375 138.656 33.6562L132.422 34.5L132.703 28.1719C131.984 29.8906 131.078 31.1719 129.984 32.0156C128.922 32.8594 127.906 33.4531 126.938 33.7969C125.781 34.2031 124.578 34.3906 123.328 34.3594C121.703 34.2031 120.078 33.8281 118.453 33.2344C116.828 32.6406 115.391 31.7344 114.141 30.5156C112.891 29.2656 111.922 27.6562 111.234 25.6875C110.578 23.7188 110.375 21.2812 110.625 18.375C110.906 15.4688 111.594 12.9375 112.688 10.7812C113.812 8.59375 115.203 6.78125 116.859 5.34375C118.516 3.90625 120.375 2.82813 122.438 2.10938C124.531 1.35938 126.672 0.953125 128.859 0.890625ZM139.453 2.71875C141.641 2.78125 143.453 2.82813 144.891 2.85938C146.359 2.85938 147.547 2.85938 148.453 2.85938H150.938H164.906C164.969 3.48438 165.016 4.09375 165.047 4.6875C165.109 5.25 165.141 5.75 165.141 6.1875C165.141 6.71875 165.125 7.20312 165.094 7.64062C165.062 8.07812 165.016 8.54688 164.953 9.04688C164.891 9.48438 164.828 9.95312 164.766 10.4531C164.703 10.9531 164.594 11.4688 164.438 12C164 10.3125 163.406 9.03125 162.656 8.15625C161.938 7.28125 161.203 6.64062 160.453 6.23438C159.578 5.76562 158.656 5.51562 157.688 5.48438C156.406 5.54688 155.406 5.65625 154.688 5.8125C153.969 5.96875 153.406 6.1875 153 6.46875C152.594 6.75 152.281 7.07812 152.062 7.45312C151.875 7.79688 151.672 8.1875 151.453 8.625C151.266 9 151.094 9.57812 150.938 10.3594C150.781 11.0156 150.625 11.9062 150.469 13.0312C150.344 14.1562 150.203 15.6094 150.047 17.3906C150.891 17.1406 151.562 16.9062 152.062 16.6875C152.594 16.4688 153.016 16.2812 153.328 16.125C153.672 15.9375 153.922 15.7656 154.078 15.6094C154.203 15.4219 154.391 15.0781 154.641 14.5781C154.828 14.1406 155.078 13.5469 155.391 12.7969C155.734 12.0469 156.141 11.0156 156.609 9.70312C156.672 11.1406 156.703 12.3438 156.703 13.3125C156.703 14.25 156.719 15.0156 156.75 15.6094C156.75 16.2969 156.766 16.8438 156.797 17.25V19.0312C156.797 19.6875 156.797 20.5781 156.797 21.7031C156.828 22.7969 156.875 24.1875 156.938 25.875C156.562 24.7188 156.219 23.8125 155.906 23.1562C155.625 22.4688 155.375 21.9531 155.156 21.6094C154.906 21.2031 154.688 20.9219 154.5 20.7656C154.281 20.7031 153.984 20.6406 153.609 20.5781C153.266 20.5469 152.828 20.5312 152.297 20.5312C151.797 20.5312 151.156 20.6094 150.375 20.7656C150.281 22.4844 150.266 23.875 150.328 24.9375C150.422 25.9688 150.547 26.7656 150.703 27.3281C150.859 27.9844 151.047 28.4531 151.266 28.7344C151.547 29.0156 152.109 29.25 152.953 29.4375C153.797 29.5938 154.75 29.6562 155.812 29.625C156.906 29.5625 158.016 29.375 159.141 29.0625C160.266 28.75 161.266 28.2344 162.141 27.5156C162.797 26.9219 163.5 26.1719 164.25 25.2656C164.875 24.4844 165.562 23.5 166.312 22.3125C167.094 21.125 167.859 19.6875 168.609 18C168.484 19.4062 168.391 20.5781 168.328 21.5156C168.297 22.4219 168.25 23.1562 168.188 23.7188C168.125 24.375 168.078 24.875 168.047 25.2188C168.047 25.5938 168 26.125 167.906 26.8125C167.844 27.4062 167.734 28.2188 167.578 29.25C167.453 30.25 167.281 31.5312 167.062 33.0938C165.594 33.125 164.203 33.1562 162.891 33.1875C161.578 33.1875 160.422 33.2031 159.422 33.2344C158.234 33.2656 157.141 33.2969 156.141 33.3281C155.109 33.3281 153.969 33.375 152.719 33.4688C151.625 33.5312 150.328 33.625 148.828 33.75C147.359 33.875 145.734 34.0469 143.953 34.2656C144.109 32.1406 144.219 30.1406 144.281 28.2656C144.375 26.3594 144.438 24.6875 144.469 23.25C144.5 21.5625 144.5 20 144.469 18.5625C144.625 14.9688 144.562 12.0625 144.281 9.84375C144 7.625 143.672 6.20312 143.297 5.57812C143.109 5.35938 142.844 5.09375 142.5 4.78125C142.219 4.53125 141.828 4.23438 141.328 3.89062C140.828 3.54687 140.203 3.15625 139.453 2.71875ZM167.672 0.515625C169.766 0.765625 171.578 0.953125 173.109 1.07812C174.641 1.17188 175.906 1.25 176.906 1.3125C178.062 1.375 179.031 1.39062 179.812 1.35938C180.625 1.32813 181.734 1.25 183.141 1.125C184.328 1.03125 185.891 0.90625 187.828 0.75C189.766 0.5625 192.188 0.3125 195.094 0C195.125 0.71875 195.141 1.42188 195.141 2.10938C195.172 2.76562 195.203 3.34375 195.234 3.84375C195.266 4.4375 195.281 4.98438 195.281 5.48438C195.281 6.01562 195.25 6.6875 195.188 7.5C195.125 8.1875 195.016 9.0625 194.859 10.125C194.734 11.1562 194.531 12.3906 194.25 13.8281C193.812 12.1406 193.391 10.7812 192.984 9.75C192.578 8.6875 192.203 7.84375 191.859 7.21875C191.484 6.5 191.109 5.95312 190.734 5.57812C190.328 5.29688 189.844 5.0625 189.281 4.875C188.781 4.71875 188.141 4.59375 187.359 4.5C186.609 4.40625 185.719 4.42188 184.688 4.54688C184.531 8.67188 184.422 12.0156 184.359 14.5781C184.297 17.1406 184.25 19.1406 184.219 20.5781C184.188 22.2969 184.172 23.5312 184.172 24.2812C184.203 25.3438 184.375 26.3906 184.688 27.4219C184.938 28.2969 185.344 29.2031 185.906 30.1406C186.469 31.0781 187.281 31.9062 188.344 32.625H182.625C182.094 32.625 181.438 32.6562 180.656 32.7188C180 32.7812 179.156 32.8438 178.125 32.9062C177.125 32.9688 175.953 33.0781 174.609 33.2344C175.078 32.4219 175.453 31.6875 175.734 31.0312C176.016 30.375 176.234 29.8125 176.391 29.3438C176.578 28.7812 176.719 28.2812 176.812 27.8438C176.844 27.2188 176.922 25.9531 177.047 24.0469C177.078 23.2656 177.109 22.2969 177.141 21.1406C177.203 19.9844 177.266 18.6094 177.328 17.0156C177.422 15.4219 177.5 13.5938 177.562 11.5312C177.656 9.4375 177.75 7.07812 177.844 4.45312C177.281 4.29687 176.75 4.3125 176.25 4.5C175.75 4.65625 175.312 4.85938 174.938 5.10938C174.5 5.42188 174.078 5.79688 173.672 6.23438C173.266 6.76562 172.812 7.45312 172.312 8.29688C171.875 9.01562 171.375 9.96875 170.812 11.1562C170.25 12.3125 169.609 13.75 168.891 15.4688C168.734 13.6562 168.625 12.1719 168.562 11.0156C168.5 9.82812 168.453 8.90625 168.422 8.25C168.391 7.46875 168.375 6.89062 168.375 6.51562C168.375 6.17188 168.344 5.71875 168.281 5.15625C168.219 4.6875 168.141 4.07812 168.047 3.32812C167.953 2.54688 167.828 1.60938 167.672 0.515625Z" fill="#0D4715"/>
</svg>
